#!OML:ASF E:/inclinewalkrobotboard/Project1/Captureday1/Session1/subject1.ASF
:FULLY-SPECIFIED
:DEGREES
213
root 0 0 0 85.6250714366079 -33.1882869814458 -56.109835418677896
lowerback -11.445153340803525 9.709976707165215 14.190730810920979
upperback -20.790012973640813 12.309009993422661 3.126548656945616
thorax -15.22395668271983 4.232517201862793 -3.783771717976271
lowerneck -8.948401164752921 11.970424368845869 6.242571856755819
upperneck 10.157453840726896 14.266372682972303 9.160635012973803
head 4.526167011064852 7.722004016017789 2.791497608994187
rclavicle 9.404567955251563E-15 7.860418216436082E-15
rhumerus 33.8438556967654 -50.10410078023479 -14.63810673367638
rradius 19.91038979841074
rwrist 40.37153848214166
rhand 0.570124583906519 2.3258104567522917
rfingers 7.125020000000066
rthumb 26.137135162493855 -25.863343677625725
lclavicle 8.601477629387633E-16 2.04700875568903E-15
lhumerus -7.174521718566924 12.984564624187804 -4.221763674757469
lradius 20.905568004672013
lwrist -38.92263730565182
lhand 0.5150026045512035 34.35548403973245
lfingers 7.125020000000039
lthumb 26.054033833853282 62.48412783159287
rfemur 206.3864763317257 -182.70953284958844 -174.30081504404305
rtibia 56.748640822097855
rfoot 58.338453752703316 -31.026725542112338
rtoes 15.77165143730711
lfemur -54.30781955215467 25.55778238110244 21.300889427748153
ltibia 22.99039399589501
lfoot -66.10728380535129 8.913622472034819
ltoes 60.37032905440135
214
root 0 0 0 85.62121523533553 -33.1864139832175 -56.10694085909276
lowerback -11.443497340746074 9.710217142819731 14.194028467795064
upperback -20.792222050896548 12.309339970186434 3.1278468647299285
thorax -15.227307691711708 4.232204646940801 -3.783554339567136
lowerneck -8.945644963650594 11.97144666812571 6.241860817463831
upperneck 10.156716071016819 14.267944965895108 9.16357733998733
head 4.52520160780697 7.722781430712778 2.7924545297417867
rclavicle 9.417194979522395E-15 7.874968179474794E-15
rhumerus 33.8057040166286 -50.11129296375469 -14.587243167242832
rradius 19.908729028152617
rwrist 40.378066402160286
rhand 0.569028447047998 2.3248614979922673
rfingers 7.125020000000066
rthumb 26.136110976880875 -25.864875667971596
lclavicle 8.652652996924438E-16 2.063612411562301E-15
lhumerus -7.207284909200457 12.987500247918296 -4.206364920658579
lradius 20.90385475314924
lwrist -38.93178290838017
lhand 0.5092163696024234 34.35147367193441
lfingers 7.125020000000039
lthumb 26.04856550701074 62.48125729982114
rfemur 206.3799070436513 -182.7045837251914 -174.29721007085936
rtibia 56.7439528622984
rfoot 58.32799730101409 -31.03210166671263
rtoes 15.774006427654804
lfemur -54.30801338896453 25.560176684833785 21.3014380768723
ltibia 22.99235860874977
lfoot -66.10333274928647 8.913189230941992
ltoes 60.3716606262439
215
root 0 0 0 85.74818349720702 -34.863339021682904 -57.05759199895706
lowerback -11.542453612853205 9.744098799237983 13.831197170820865
upperback -19.83069305166235 12.404618700738778 2.92494293603666
thorax -14.081827471608593 4.38545700237898 -3.940738819070776
lowerneck -9.617323969229203 11.44844651006138 6.318302481022833
upperneck 11.70178786576104 13.437969100899819 8.505045604089887
head 5.27725102830418 7.330086218154593 2.569202336900305
rclavicle 9.064658362630489E-15 1.2464991014966856E-14
rhumerus 33.133971806265194 -49.86861793627406 -15.316910148637483
rradius 22.05671040953862
rwrist 39.27923394199526
rhand 0.7133555243975556 2.834094957886294
rfingers 7.125020000000072
rthumb 26.286300585718493 -25.331329078948283
lclavicle 7.182838244240125E-16 5.086988704202236E-15
lhumerus -19.659339549592815 14.928122544408641 2.215869761048502
lradius 21.121511291230497
lwrist -39.909906007628976
lhand -0.5301864236705263 33.715555928799986
lfingers 7.125020000000037
lthumb 25.057221568852547 62.05028582583196
rfemur 209.6293669173345 -183.94657017651105 -176.48698668681857
rtibia 56.68669090899799
rfoot 57.37889122816617 -30.281037155808903
rtoes 15.094053398735783
lfemur -60.9279631902731 24.026437038509993 20.317262487919557
ltibia 23.506688649771995
lfoot -68.88337002070007 11.805927301995846
ltoes 60.888079651654984
216
root 0 0 0 85.69773854016952 -33.25708747321926 -56.14449167443728
lowerback -11.495083391303456 9.695277922573613 14.100101080746787
upperback -20.733777561766622 12.292865448893878 3.1039749487205732
thorax -15.13680600975384 4.236949754841917 -3.7740104307338695
lowerneck -9.036400444180845 11.936092110970156 6.243175620492425
upperneck 10.16879080367 14.222004555134088 9.074671509293662
head 4.549252809514349 7.697479321264854 2.766958997888359
rclavicle 1.032502453515603E-14 7.819320750680715E-15
rhumerus 34.24898014669404 -50.071971122371146 -15.153761356130588
rradius 19.810112822275435
rwrist 40.42553879557981
rhand 0.6204555785209909 2.2871288585661693
rfingers 7.125020000000066
rthumb 26.18535030590507 -25.891451244327932
lclavicle 1.312307871108382E-15 2.1074228637091673E-15
lhumerus -7.0767194084772065 12.750844534971943 -4.731308866424079
lradius 20.916379247625695
lwrist -38.875554977721045
lhand 0.5667101661154927 34.35433350364118
lfingers 7.125020000000039
lthumb 26.103125999047666 62.467071960115995
rfemur 205.79350251735548 -182.49203285806038 -173.8450288708762
rtibia 56.63444489213547
rfoot 58.45705048282332 -31.515766208032232
rtoes 15.950056232334338
lfemur -54.23797526998664 25.53892472234918 21.194750492420305
ltibia 23.04852565855007
lfoot -66.19695287819036 8.918441794999698
ltoes 60.38444705133681
217
root 0 0 0 85.61774239815682 -33.155904781313936 -56.08869501427285
lowerback -11.446431076975811 9.708315057392612 14.189609552997432
upperback -20.802787209008653 12.306953988383784 3.1304397783681144
thorax -15.238524861039295 4.230508896100958 -3.7773189149874833
lowerneck -8.942862757900247 11.978067036392723 6.24031620738906
upperneck 10.131322624509863 14.28025297079899 9.164468430055134
head 4.51406863073535 7.727962487295673 2.793703646840057
rclavicle 9.376554384348516E-15 7.894638051072016E-15
rhumerus 34.183685226298934 -50.13675280416119 -14.798092727673655
rradius 19.797429124975462
rwrist 40.4282912525766
rhand 0.6172405152467695 2.2647828929311737
rfingers 7.125020000000066
rthumb 26.18193793478974 -25.915043902966346
lclavicle 7.982280299364279E-16 1.9783228994953898E-15
lhumerus -6.734330163415108 12.9174168475051 -4.565932537357192
lradius 20.905185742262994
lwrist -38.87963411448928
lhand 0.5937148985880609 34.39385475210467
lfingers 7.125020000000039
lthumb 26.12882379976591 62.50803099436689
rfemur 206.2620442687708 -182.65342809076412 -174.15586936967526
rtibia 56.73278827955241
rfoot 58.47178845249417 -31.088135761435623
rtoes 15.886070809935914
lfemur -54.25649223219234 25.571335698133012 21.319243533470384
ltibia 22.99987097650208
lfoot -66.09418964908151 8.879150845750738
ltoes 60.37176530680571
218
root 0 0 0 85.58382525798663 -33.119015159986915 -56.06041367630329
lowerback -11.428986420352022 9.71127918567524 14.221544247177636
upperback -20.83014420012175 12.310281082834985 3.1421167227000457
thorax -15.278512999568918 4.2270372018858895 -3.775867703810956
lowerneck -8.909907196246957 11.991962923238708 6.234820509648343
upperneck 10.112633490689563 14.301197564922198 9.196286237493704
head 4.498936425097131 7.738376881142139 2.8040378245583897
rclavicle 9.388782167669702E-15 7.967500966713511E-15
rhumerus 34.05753960699488 -50.14180475493644 -14.677789223185165
rradius 19.792210702113003
rwrist 40.424589881186705
rhand 0.60337326312996 2.2668128172588276
rfingers 7.125020000000066
rthumb 26.168792914477226 -25.916818891186097
lclavicle 8.47180875000069E-16 2.108319994540268E-15
lhumerus -6.712173168671516 12.975970729456686 -4.435106965985447
lradius 20.905359243987277
lwrist -38.89523133115817
lhand 0.5738081888189723 34.391954829909025
lfingers 7.125020000000039
lthumb 26.110075020907818 62.51195581864628
rfemur 206.4205988232381 -182.7335225176634 -174.27765018052156
rtibia 56.766993655538634
rfoot 58.44083381963006 -30.946709419277607
rtoes 15.849653197732232
lfemur -54.28360755904963 25.575148062730467 21.340727512501417
ltibia 22.991938312143873
lfoot -66.06351035551104 8.861651460034084
ltoes 60.375075879723866
219
root 0 0 0 85.59755899970779 -33.148802712116805 -56.080775988806295
lowerback -11.432964550618717 9.711444598288233 14.213301666739277
upperback -20.81446805157064 12.310561733556323 3.1364040521283156
thorax -15.258199234266492 4.2292290729651505 -3.780248774895383
lowerneck -8.92261504025825 11.983496056066894 6.238016695036392
upperneck 10.13417735007032 14.286935372486017 9.185009448895666
head 4.510751488232605 7.731877066726401 2.799713624496592
rclavicle 9.473083209859793E-15 7.986106846579937E-15
rhumerus 33.97813537750106 -50.122565408335994 -14.64989500981762
rradius 19.862557106911257
rwrist 40.400699965121376
rhand 0.5899845146702463 2.292468289102458
rfingers 7.125020000000066
rthumb 26.156176458155006 -25.893599977683515
lclavicle 8.853547096057274E-16 2.144495004116636E-15
lhumerus -6.928331835205542 12.99234269910803 -4.301395711180312
lradius 20.90471878311349
lwrist -38.913680366084776
lhand 0.5403302229139906 34.3737197593171
lfingers 7.125020000000039
lthumb 26.078226383175885 62.49955032851093
rfemur 206.43694260024324 -182.7443855987941 -174.31736613613606
rtibia 56.77162454076722
rfoot 58.380422358863584 -30.949457824297745
rtoes 15.800386934360152
lfemur -54.30602120657244 25.56754691488551 21.323416578953513
ltibia 22.98937553905337
lfoot -66.08095920697183 8.883132901819614
ltoes 60.377339442432984
